<?xml version="1.0" encoding="UTF-8" standalone="no"?>
<svg
   xmlns:dc="http://purl.org/dc/elements/1.1/"
   xmlns:cc="http://creativecommons.org/ns#"
   xmlns:rdf="http://www.w3.org/1999/02/22-rdf-syntax-ns#"
   xmlns:svg="http://www.w3.org/2000/svg"
   xmlns="http://www.w3.org/2000/svg"
   xmlns:sodipodi="http://sodipodi.sourceforge.net/DTD/sodipodi-0.dtd"
   xmlns:inkscape="http://www.inkscape.org/namespaces/inkscape"
   id="svg2178"
   width="93.627357"
   height="73.197586"
   version="1.0"
   inkscape:version="0.48.4 r9939"
   sodipodi:docname="basex.svg">
  <sodipodi:namedview
     pagecolor="#ffffff"
     bordercolor="#666666"
     borderopacity="1"
     objecttolerance="10"
     gridtolerance="10"
     guidetolerance="10"
     inkscape:pageopacity="0"
     inkscape:pageshadow="2"
     inkscape:window-width="1236"
     inkscape:window-height="867"
     id="namedview2994"
     showgrid="false"
     fit-margin-top="1"
     fit-margin-left="1"
     fit-margin-right="1"
     fit-margin-bottom="1"
     inkscape:zoom="7.9580966"
     inkscape:cx="36.807034"
     inkscape:cy="43.724013"
     inkscape:window-x="0"
     inkscape:window-y="0"
     inkscape:window-maximized="0"
     inkscape:current-layer="svg2178" />
  <metadata
     id="metadata2183">
    <rdf:RDF>
      <cc:Work
         rdf:about="">
        <dc:format>image/svg+xml</dc:format>
        <dc:type
           rdf:resource="http://purl.org/dc/dcmitype/StillImage" />
      </cc:Work>
    </rdf:RDF>
  </metadata>
  <defs
     id="defs2181" />
  <g
     id="layer2"
     transform="matrix(0.06969682,0,0,0.07075756,-8.4896576,-4.3775746)">
    <path
       style="font-size:1470px;font-style:normal;font-variant:normal;font-weight:normal;font-stretch:normal;text-align:start;line-height:100%;writing-mode:lr-tb;text-anchor:start;fill:#ffffff;fill-opacity:1;stroke:#000000;stroke-width:19.98425102;stroke-linecap:butt;stroke-linejoin:miter;stroke-miterlimit:4;stroke-opacity:1;font-family:Clarendo"
       d="m 628.08008,847.55762 c -14.83439,16.74825 -26.19913,31.82148 -34.09424,45.21972 -7.89589,13.39861 -11.84364,24.1652 -11.84326,32.29981 -3.8e-4,12.92005 4.78477,22.01184 14.35547,27.27539 9.56991,5.26379 27.99274,7.89562 55.26855,7.89551 l 68.90625,0 0,111.97265 -513.20801,0 0,-111.97265 48.8086,0 c 28.71086,1.1e-4 51.79921,-4.30653 69.26513,-12.91992 17.46569,-8.61315 39.35776,-28.23227 65.67627,-58.85743 L 673.2998,568.34375 441.45898,276.92773 C 416.57596,245.82505 393.60723,224.77038 372.55273,213.76367 351.4979,202.75868 325.89734,197.25576 295.75098,197.25488 l -50.24414,0 0,-111.25488 521.82129,0 0,111.25488 -67.47071,0 c -13.87743,8.8e-4 -24.40476,2.51308 -31.58203,7.53662 -7.17819,5.02528 -10.76705,12.32264 -10.7666,21.89209 -4.5e-4,6.70006 1.79398,13.5189 5.3833,20.45655 3.58841,6.93929 9.68947,15.43294 18.30322,25.48095 L 810.39453,429.81348 967.58691,265.44336 c 7.17697,-7.17692 12.91915,-14.59391 17.22657,-22.25098 4.30585,-7.65541 6.45917,-14.11536 6.45996,-19.37988 -7.9e-4,-8.61242 -5.38408,-15.19201 -16.1499,-19.73877 -10.76736,-4.54503 -26.91725,-6.81797 -48.44971,-6.81885 l -57.42188,0 0,-111.25488 462.96385,0 0,111.25488 -53.1152,0 c -37.8038,8.8e-4 -89.2442,35.88951 -154.3213,107.66602 l -1.4355,1.43555 -217.4854,238.30078 249.7852,311.51367 c 39.2372,48.80876 69.0248,78.35707 89.3627,88.64502 20.3359,10.2882 49.4057,15.43224 87.2095,15.43213 l 43.7842,0 0,111.97265 -565.60547,0 0,-111.97265 67.4707,0 c 23.92509,1.1e-4 41.39089,-2.03358 52.39747,-6.10108 11.00512,-4.06726 16.50804,-10.8861 16.50878,-20.45654 -7.4e-4,-7.17759 -1.43628,-14.7142 -4.30664,-22.60986 -2.87182,-7.89534 -7.17846,-15.43196 -12.91992,-22.60987 L 768.76367,685.34082 628.08008,847.55762 z"
       id="text2175"
       inkscape:connector-curvature="0" />
    <path
       style="font-size:500px;font-style:normal;font-variant:normal;font-weight:800;font-stretch:normal;text-align:start;line-height:125%;writing-mode:lr-tb;text-anchor:start;fill:#e00000;fill-opacity:1;stroke:#ffffff;stroke-width:20;stroke-linecap:butt;stroke-linejoin:miter;stroke-miterlimit:4;stroke-opacity:1;font-family:Arial Black"
       d="m 146.16714,395.52869 207.03125,0 c 34.50493,3.5e-4 60.99416,8.54527 79.46777,25.63476 18.47297,17.09016 27.70961,38.24899 27.70996,63.47656 -3.5e-4,21.15911 -6.59214,39.30687 -19.77539,54.44336 -8.78938,10.09135 -21.64744,18.06661 -38.57422,23.92579 25.71583,6.18508 44.63671,16.80518 56.7627,31.86035 12.12529,15.05548 18.18811,33.97636 18.18847,56.76269 -3.6e-4,18.55477 -4.31351,35.2377 -12.93945,50.04883 -8.62665,14.81124 -20.42677,26.52997 -35.40039,35.15625 -9.27765,5.37111 -23.27504,9.27735 -41.99219,11.71875 -24.90259,3.25521 -41.42276,4.88281 -49.56054,4.88281 l -190.91797,0 0,-357.91015 z m 111.57226,140.38086 48.09571,0 c 17.25239,2.1e-4 29.25596,-2.97016 36.01074,-8.91114 6.75432,-5.94052 10.13159,-14.52612 10.13183,-25.75683 -2.4e-4,-10.41641 -3.37751,-18.55442 -10.13183,-24.41407 -6.75478,-5.85909 -18.51421,-8.78877 -35.27832,-8.78906 l -48.82813,0 0,67.8711 z m 0,140.625 56.39649,0 c 19.04274,7e-5 32.47046,-3.3772 40.2832,-10.13184 7.81225,-6.75446 11.71849,-15.82835 11.71875,-27.22168 -2.6e-4,-10.5793 -3.86581,-19.08353 -11.59668,-25.5127 -7.73136,-6.42889 -21.28115,-9.6434 -40.64941,-9.64355 l -56.15235,0 0,72.50977 z"
       id="text2205"
       inkscape:connector-curvature="0" />
    <path
       style="font-size:500px;font-style:normal;font-variant:normal;font-weight:800;font-stretch:normal;text-align:start;line-height:125%;writing-mode:lr-tb;text-anchor:start;fill:#e00000;fill-opacity:1;stroke:#ffffff;stroke-width:20;stroke-linecap:butt;stroke-linejoin:miter;stroke-miterlimit:4;stroke-opacity:1;font-family:Arial Black"
       d="m 703.69272,694.35681 -125.97656,0 -17.33399,59.08203 -113.03711,0 134.52149,-357.91015 120.60547,0 134.52148,357.91015 -115.72266,0 -17.57812,-59.08203 z m -23.19336,-77.39258 -39.55078,-128.66211 -39.30664,128.66211 78.85742,0 z"
       id="text3180"
       inkscape:connector-curvature="0" />
    <path
       style="font-size:500px;font-style:normal;font-variant:normal;font-weight:800;font-stretch:normal;text-align:start;line-height:125%;writing-mode:lr-tb;text-anchor:start;fill:#e00000;fill-opacity:1;stroke:#ffffff;stroke-width:20;stroke-linecap:butt;stroke-linejoin:miter;stroke-miterlimit:4;stroke-opacity:1;font-family:Arial Black"
       d="m 810.90509,641.13416 105.22461,-6.5918 c 2.27852,17.08995 6.91719,30.11077 13.91602,39.0625 11.39308,14.48575 27.6691,21.72858 48.82812,21.72851 15.78756,7e-5 27.95386,-3.70273 36.49906,-11.10839 8.5447,-7.40552 12.8171,-15.99112 12.8173,-25.75684 -2e-4,-9.27723 -4.0692,-17.57801 -12.207,-24.90234 -8.1382,-7.32409 -27.01841,-14.2414 -56.64061,-20.75196 -48.50272,-10.90479 -83.08928,-25.39045 -103.75977,-43.45703 -20.83337,-18.0662 -31.25003,-41.09677 -31.25,-69.0918 -3e-5,-18.39164 5.33037,-35.7663 15.99122,-52.12402 10.66075,-16.35709 26.69263,-29.21515 48.0957,-38.57422 21.40288,-9.35836 50.74041,-14.03772 88.01269,-14.03808 45.73547,3.6e-4 80.60687,8.50458 104.61427,25.51269 24.0068,17.00879 38.2891,44.06768 42.8467,81.17676 l -104.2481,6.10352 c -2.7671,-16.11302 -8.5858,-27.83176 -17.456,-35.15625 -8.87067,-7.32393 -21.11838,-10.98604 -36.74319,-10.98633 -12.85824,2.9e-4 -22.54247,2.72653 -29.05274,8.17871 -6.51055,5.45276 -9.76576,12.08524 -9.76562,19.89746 -1.4e-4,5.69688 2.68541,10.82383 8.05664,15.38086 5.20818,4.7203 17.57796,9.11483 37.10937,13.18359 48.33964,10.4169 82.96684,20.95563 103.88184,31.61621 20.9144,10.66101 36.1325,23.88528 45.6543,39.67285 9.5211,15.78792 14.2819,33.44741 14.2822,52.97852 -3e-4,22.94931 -6.348,44.10815 -19.0429,63.47656 -12.6957,19.36853 -30.4365,34.05764 -53.2227,44.06739 -22.7867,10.00976 -51.5139,15.01464 -86.18164,15.01464 -60.87252,0 -103.02743,-11.71874 -126.46485,-35.15625 -23.43753,-23.43744 -36.70249,-53.22257 -39.79492,-89.35546 l 0,0 z"
       id="text3184"
       inkscape:connector-curvature="0" />
    <path
       style="font-size:500px;font-style:normal;font-variant:normal;font-weight:800;font-stretch:normal;text-align:start;line-height:125%;writing-mode:lr-tb;text-anchor:start;fill:#e00000;fill-opacity:1;stroke:#ffffff;stroke-width:20;stroke-linecap:butt;stroke-linejoin:miter;stroke-miterlimit:4;stroke-opacity:1;font-family:Arial Black"
       d="m 1139.0592,395.52869 296.3867,0 0,76.41601 -185.5469,0 0,56.88477 172.1192,0 0,72.99804 -172.1192,0 0,70.55665 190.918,0 0,81.05468 -301.7578,0 0,-357.91015 z"
       id="text3188"
       inkscape:connector-curvature="0" />
  </g>
</svg>
